# xmcd
#
# Track frame offsets:
#  150
#  10735
#  27855
#  42070
#  59631
#  76310
#  96608
#  123760
#  134604
#  147485
#  162744
#  182902
#  197092
#
# Disc length: 2827 seconds
#
# Revision: 0
# Processed by: cddbd v1.5.2PL0 Copyright (c) Steve Scherf et al.
# Submitted via: AltoMP3_Maker 3.0
#
DISCID=bc0b090d
DTITLE=Tin Men - On the Shady Side
DYEAR=1900
DGENRE=
TTITLE0=Chocko Mo Feendo Hey
TTITLE1=Got Me a New Love Thing
TTITLE2=Baby Brown
TTITLE3=You're Not the Only Oyster in the Stew
TTITLE4=Yo Mama Can't Dance Like This
TTITLE5=Medley: On the Sunny Side of the Street - On the Shady Side of the Street
TTITLE6=Jitterbug Waltz
TTITLE7=I'm in Love Again
TTITLE8=Rubbin' on That Darned Old Thing
TTITLE9=Dinky Doo
TTITLE10=Papa Was a Rascal
TTITLE11=Holy Cow
TTITLE12=Gone So Long
EXTD=
EXTT0=
EXTT1=
EXTT2=
EXTT3=
EXTT4=
EXTT5=
EXTT6=
EXTT7=
EXTT8=
EXTT9=
EXTT10=
EXTT11=
EXTT12=
PLAYORDER=
